<svg xmlns="http://www.w3.org/2000/svg" viewBox="0 0 512 512">
  <defs>
    <linearGradient id="grad1" x1="0%" y1="0%" x2="100%" y2="100%">
      <stop offset="0%" style="stop-color:#9333ea;stop-opacity:1" />
      <stop offset="100%" style="stop-color:#db2777;stop-opacity:1" />
    </linearGradient>
  </defs>
  <rect width="512" height="512" rx="120" fill="url(#grad1)"/>
  <path d="M368.6 128.6c-13.7-5.7-29.5.9-35.2 14.6L288 252.3V160c0-17.7-14.3-32-32-32H128c-17.7 0-32 14.3-32 32v192c0 53 43 96 96 96s96-43 96-96V217.7l59.4-142.6c5.7-13.7-.9-29.5-14.6-35.2l-64.2-26.7zM192 416c-17.7 0-32-14.3-32-32s14.3-32 32-32 32 14.3 32 32-14.3 32-32 32z" fill="white"/>
</svg>